<svg width="53" height="51" viewBox="0 0 53 51" fill="none" xmlns="http://www.w3.org/2000/svg">
<path d="M22 21V25H18V21H22ZM28 27V31H24V27H28ZM3 5C4.39 5 16.8 5.28 23.7 14.93C24.76 16.42 25.74 18.06 26.77 19.8C31.7 28.11 35.97 34 46 34V48C27.22 48 19.4 34.82 14.73 26.95C13.85 25.47 13.03 24.08 12.31 23.07C9.55 19.21 3.01 19 3 19H1.87V5H3ZM12 21H16V25H18V27H22V31H24V33H28V37H30V33H34V31H30V27H28V25H24V21H22V19H18V15H16V19H12V21Z" fill="url(#paint0_linear_1860_38899)"/>
<path d="M29 12.1121C29 12.1121 36.1204 12.9374 37.3794 13.2844C38.2047 13.5023 39.0299 14.0652 39.4193 15.3243C39.7663 16.5833 40.5916 23.7037 40.5916 23.7037L41.1121 23.7037C41.1121 23.7037 41.9374 16.5833 42.2844 15.3243C42.5306 14.3175 43.3175 13.5306 44.3243 13.2844C45.5833 12.9374 52.7037 12.1121 52.7037 12.1121L52.7037 11.5916C52.7037 11.5916 45.5833 10.7663 44.3243 10.4193C43.3255 10.157 42.5467 9.37616 42.2844 8.37943C41.9374 7.12039 41.1121 7.51472e-08 41.1121 7.51472e-08L40.5916 7.19175e-08C40.5916 7.19175e-08 39.7663 7.12039 39.4193 8.37943C39.1731 9.38625 38.3862 10.1731 37.3794 10.4193C36.1204 10.7663 29 11.5916 29 11.5916L29 12.1121Z" fill="url(#paint1_linear_1860_38899)"/>
<defs>
<linearGradient id="paint0_linear_1860_38899" x1="24.8796" y1="48" x2="2.22353" y2="32.8412" gradientUnits="userSpaceOnUse">
<stop stop-color="#41C9FE"/>
<stop offset="1" stop-color="#2B87AA"/>
</linearGradient>
<linearGradient id="paint1_linear_1860_38899" x1="40.3445" y1="23.7037" x2="52.7071" y2="15.6439" gradientUnits="userSpaceOnUse">
<stop stop-color="#41C9FE"/>
<stop offset="1" stop-color="#2B87AA"/>
</linearGradient>
</defs>
</svg>
