<svg width="71" height="64" viewBox="0 0 71 64" fill="none" xmlns="http://www.w3.org/2000/svg">
<path fill-rule="evenodd" clip-rule="evenodd" d="M42.1701 9.02214L50.2386 63.4271L46.5292 63.9772L38.4607 9.57227L42.1701 9.02214Z" fill="white"/>
<path fill-rule="evenodd" clip-rule="evenodd" d="M13.7652 9.02312L5.69669 63.4281L9.40612 63.9782L17.4746 9.57324L13.7652 9.02312Z" fill="white"/>
<path opacity="0.5" d="M3.59961 53.126V56.876H0V53.126H3.59961ZM10.7998 53.126V56.876H7.19922V53.126H10.7998ZM18 53.126V56.876H14.3994V53.126H18ZM25.1992 53.126V56.876H21.5996V53.126H25.1992ZM32.3994 53.126V56.876H28.7998V53.126H32.3994ZM39.5996 53.126V56.876H36V53.126H39.5996ZM46.7998 53.126V56.876H43.1992V53.126H46.7998ZM54 53.126V56.876H50.3994V53.126H54ZM10.7998 17.126V20.876H7.19922V17.126H10.7998ZM18 17.126V20.876H14.3994V17.126H18ZM25.1992 17.126V20.876H21.5996V17.126H25.1992ZM32.3994 17.126V20.876H28.7998V17.126H32.3994ZM39.5996 17.126V20.876H36V17.126H39.5996ZM46.7998 17.126V20.876H43.1992V17.126H46.7998Z" fill="white"/>
<path d="M46.4746 12.1121C46.4746 12.1121 53.595 12.9374 54.854 13.2844C55.6793 13.5023 56.5045 14.0652 56.8939 15.3243C57.2409 16.5833 58.0662 23.7037 58.0662 23.7037L58.5867 23.7037C58.5867 23.7037 59.412 16.5833 59.759 15.3243C60.0052 14.3175 60.7921 13.5306 61.7989 13.2844C63.0579 12.9374 70.1783 12.1121 70.1783 12.1121L70.1783 11.5916C70.1783 11.5916 63.0579 10.7663 61.7989 10.4193C60.8001 10.157 60.0213 9.37616 59.759 8.37943C59.412 7.12039 58.5867 7.51472e-08 58.5867 7.51472e-08L58.0662 7.19175e-08C58.0662 7.19175e-08 57.2409 7.12039 56.8939 8.37943C56.6477 9.38625 55.8609 10.1731 54.854 10.4193C53.595 10.7663 46.4746 11.5916 46.4746 11.5916L46.4746 12.1121Z" fill="white"/>
</svg>
