<svg width="68" height="57" viewBox="0 0 68 57" fill="none" xmlns="http://www.w3.org/2000/svg">
<path d="M44 12.1121C44 12.1121 51.1204 12.9374 52.3794 13.2844C53.2047 13.5023 54.0299 14.0652 54.4193 15.3243C54.7663 16.5833 55.5916 23.7037 55.5916 23.7037L56.1121 23.7037C56.1121 23.7037 56.9374 16.5833 57.2844 15.3243C57.5306 14.3175 58.3175 13.5306 59.3243 13.2844C60.5833 12.9374 67.7037 12.1121 67.7037 12.1121L67.7037 11.5916C67.7037 11.5916 60.5833 10.7663 59.3243 10.4193C58.3255 10.157 57.5467 9.37616 57.2844 8.37943C56.9374 7.12039 56.1121 7.51472e-08 56.1121 7.51472e-08L55.5916 7.19175e-08C55.5916 7.19175e-08 54.7663 7.12039 54.4193 8.37943C54.1731 9.38625 53.3862 10.1731 52.3794 10.4193C51.1204 10.7663 44 11.5916 44 11.5916L44 12.1121Z" fill="url(#paint0_linear_1860_38903)"/>
<path d="M29.5625 21.9126V14.165H25.6875V9H15.6876V14.165H11.8126V15.9728C7.2251 17.2149 3.03749 19.0841 0 22.5275L0.0625 28H2.74999C4.12498 23.8803 7.5751 22.6136 11.8126 21.1256V21.9126H29.5625Z" fill="url(#paint1_linear_1860_38903)"/>
<path d="M64 41.3333L61.3182 46.6667H53.2727L51.2727 57H33.7273L35.7273 46.6667H7.68182L5 41.3333H64ZM10.3636 28C13.3136 28 15.7273 30.4 15.7273 33.3333C15.7273 36.2667 13.3136 38.6667 10.3636 38.6667C7.41364 38.6667 5 36.2667 5 33.3333C5 30.4 7.41364 28 10.3636 28ZM59.4409 30.6667H61.3182V38.6667H18.4091V30.6667H37.1818V33.3333H58.6364V30.6667H59.4409Z" fill="url(#paint2_linear_1860_38903)"/>
<defs>
<linearGradient id="paint0_linear_1860_38903" x1="55.3445" y1="23.7037" x2="67.7071" y2="15.6439" gradientUnits="userSpaceOnUse">
<stop stop-color="#41C9FE"/>
<stop offset="1" stop-color="#2B87AA"/>
</linearGradient>
<linearGradient id="paint1_linear_1860_38903" x1="14.1485" y1="28" x2="24.9774" y2="17.0153" gradientUnits="userSpaceOnUse">
<stop stop-color="#41C9FE"/>
<stop offset="1" stop-color="#2B87AA"/>
</linearGradient>
<linearGradient id="paint2_linear_1860_38903" x1="33.2371" y1="57" x2="49.129" y2="35.9212" gradientUnits="userSpaceOnUse">
<stop stop-color="#41C9FE"/>
<stop offset="1" stop-color="#2B87AA"/>
</linearGradient>
</defs>
</svg>
