<svg width="52" height="52" viewBox="0 0 52 52" fill="none" xmlns="http://www.w3.org/2000/svg">
<path d="M28 12.1121C28 12.1121 35.1204 12.9374 36.3794 13.2844C37.2047 13.5023 38.0299 14.0652 38.4193 15.3243C38.7663 16.5833 39.5916 23.7037 39.5916 23.7037L40.1121 23.7037C40.1121 23.7037 40.9374 16.5833 41.2844 15.3243C41.5306 14.3175 42.3175 13.5306 43.3243 13.2844C44.5833 12.9374 51.7037 12.1121 51.7037 12.1121L51.7037 11.5916C51.7037 11.5916 44.5833 10.7663 43.3243 10.4193C42.3255 10.157 41.5467 9.37616 41.2844 8.37943C40.9374 7.12039 40.1121 7.51472e-08 40.1121 7.51472e-08L39.5916 7.19175e-08C39.5916 7.19175e-08 38.7663 7.12039 38.4193 8.37943C38.1731 9.38625 37.3862 10.1731 36.3794 10.4193C35.1204 10.7663 28 11.5916 28 11.5916L28 12.1121Z" fill="white"/>
<path d="M5.41777 13.5849L2.16711 16.8356L-3.8147e-06 14.6684L8.66844 6L10.8356 8.16711L7.58488 11.4178L12.6347 16.488L21.6711 7.45156L23.8382 9.61867L19.504 13.9529L40.8276 35.2764C39.928 37.3209 38.7013 39.2631 37.168 41.0213L46 49.8329V52H43.8329L35.0009 43.168C33.2427 44.7013 31.3209 45.928 29.256 46.8276L7.93244 25.504L3.59822 29.8382L1.43111 27.6711L10.4676 18.6347L5.41777 13.5849ZM10.12 23.3573L19.8924 33.1298L27.1298 25.8924L17.3573 16.12L10.12 23.3573Z" fill="white"/>
</svg>
