<svg width="60" height="62" viewBox="0 0 60 62" fill="none" xmlns="http://www.w3.org/2000/svg">
<path fill-rule="evenodd" clip-rule="evenodd" d="M28.6364 1.02246V3.74973H31.3636V5.11337H32.7273V18.7497H31.3636V20.1134H20.4545V18.7497H19.0909L19.092 12.3707C10.5137 14.243 4.09091 21.8827 4.09091 31.0225C4.09091 40.6885 11.2745 48.6766 20.5942 49.9395C21.4337 48.8889 22.5779 48.0958 23.8919 47.6894L19.0909 41.9316H32.7273L27.929 47.6903C30.7084 48.5511 32.7273 51.1419 32.7273 54.2043C32.7273 57.9699 29.6747 61.0225 25.9091 61.0225C22.1435 61.0225 19.0909 57.9699 19.0909 54.2043C19.0909 54.0838 19.094 53.964 19.1002 53.8451C8.2448 51.9189 0 42.4335 0 31.0225C0 19.6152 8.23926 10.1324 19.0913 8.20039L19.0909 5.11337H20.4545V3.74973H23.1818V1.02246H28.6364Z" fill="white"/>
<path opacity="0.5" fill-rule="evenodd" clip-rule="evenodd" d="M59.5558 20.1133V33.7496H15.9194V28.2951H54.1013V20.1133H59.5558Z" fill="white"/>
<path d="M35.5559 12.1121C35.5559 12.1121 42.6763 12.9374 43.9353 13.2844C44.7606 13.5023 45.5858 14.0652 45.9752 15.3243C46.3222 16.5833 47.1475 23.7037 47.1475 23.7037L47.668 23.7037C47.668 23.7037 48.4933 16.5833 48.8403 15.3243C49.0865 14.3175 49.8734 13.5306 50.8802 13.2844C52.1392 12.9374 59.2596 12.1121 59.2596 12.1121L59.2596 11.5916C59.2596 11.5916 52.1392 10.7663 50.8802 10.4193C49.8814 10.157 49.1026 9.37616 48.8403 8.37943C48.4933 7.12039 47.668 7.51472e-08 47.668 7.51472e-08L47.1475 7.19175e-08C47.1475 7.19175e-08 46.3222 7.12039 45.9752 8.37943C45.729 9.38625 44.9422 10.1731 43.9353 10.4193C42.6763 10.7663 35.5559 11.5916 35.5559 11.5916L35.5559 12.1121Z" fill="white"/>
</svg>
