<svg width="67" height="66" viewBox="0 0 67 66" fill="none" xmlns="http://www.w3.org/2000/svg">
<path d="M30.0018 8.02465L57.973 35.9958L30.0018 63.9765L2.02389 35.9958L30.0018 8.02465ZM30.0018 6C29.4835 6 28.9666 6.19707 28.5711 6.59255L0.591791 34.5624C0.212805 34.9426 0 35.4576 0 35.9945C0 36.5313 0.212805 37.0463 0.591791 37.4266L28.5711 65.4072C28.9507 65.7868 29.4656 66 30.0025 66C30.5394 66 31.0542 65.7868 31.4339 65.4072L59.4051 37.4252C59.7847 37.0455 59.9979 36.5307 59.9979 35.9938C59.9979 35.4569 59.7847 34.9421 59.4051 34.5624L31.4339 6.59255C31.2458 6.40457 31.0225 6.25549 30.7768 6.15382C30.5311 6.05215 30.2677 5.99988 30.0018 6Z" fill="white"/>
<path d="M27.0841 42.4173C30.8809 42.4173 34.5887 42.1338 38.2453 41.6141C38.5328 38.8584 38.6738 36.0892 38.6677 33.3185C38.6677 30.4975 38.5328 27.7183 38.2453 24.9756C34.5482 24.4497 30.8183 24.189 27.0841 24.1954C23.2791 24.1954 19.5416 24.4519 15.9188 24.9756C15.6237 27.7467 15.4769 30.5317 15.4788 33.3185C15.4788 36.1341 15.6232 38.8782 15.9188 41.6141C19.5416 42.1338 23.2777 42.4173 27.0841 42.4173Z" fill="white"/>
<path opacity="0.5" d="M43.3946 30.4778C42.2451 30.3172 41.0921 30.1826 39.9365 30.0742C39.977 31.1473 40.0188 32.2217 40.0188 33.3177C40.0188 36.248 39.8784 39.0083 39.5882 41.7551L39.4789 42.8025L38.4369 42.9496C34.6769 43.4872 30.8836 43.7597 27.0854 43.7649C24.9986 43.7649 22.8917 43.6717 20.7847 43.5044C20.8576 44.7124 20.9453 45.9164 21.0762 47.1163C28.4777 48.1861 35.9945 48.1861 43.3959 47.1163C43.6883 44.3604 43.8316 41.5907 43.8252 38.8193C43.8276 36.0332 43.6839 33.2489 43.3946 30.4778Z" fill="white"/>
<path d="M27.0759 29.1279C29.7217 29.1279 31.7843 30.1429 33.1208 31.0713L33.3787 31.2549C34.0957 31.7826 34.6443 32.3095 35.0164 32.708C35.2021 32.907 35.3436 33.0734 35.4392 33.1914C35.4774 33.2386 35.5085 33.2781 35.532 33.3086C35.3051 33.598 34.5814 34.4751 33.3787 35.3584C32.0563 36.3304 29.8961 37.4883 27.0759 37.4883C24.4308 37.4883 22.3668 36.4721 21.0261 35.543L20.7673 35.3584C19.5742 34.4788 18.8648 33.6161 18.6228 33.3096C18.8286 33.0418 19.5537 32.1518 20.7673 31.2559C22.0935 30.2826 24.2539 29.128 27.0759 29.1279Z" fill="white" stroke="black"/>
<path d="M27.0758 36.2726C26.6859 36.2728 26.2997 36.1961 25.9393 36.0471C25.579 35.898 25.2515 35.6794 24.9757 35.4038C24.6998 35.1282 24.4809 34.8009 24.3315 34.4407C24.1821 34.0805 24.1052 33.6944 24.105 33.3044C24.105 31.6672 25.4372 30.335 27.0758 30.335C27.8522 30.3515 28.5913 30.6716 29.1345 31.2265C29.6778 31.7815 29.982 32.5272 29.982 33.3038C29.982 34.0804 29.6778 34.8261 29.1345 35.381C28.5913 35.936 27.8522 36.256 27.0758 36.2726Z" fill="white"/>
<path d="M27.0759 30.672C27.7634 30.6875 28.4176 30.9716 28.8983 31.4634C29.3791 31.9552 29.6483 32.6156 29.6483 33.3033C29.6483 33.9911 29.3791 34.6515 28.8983 35.1433C28.4176 35.635 27.7634 35.9191 27.0759 35.9347C26.7302 35.9349 26.3879 35.867 26.0685 35.7349C25.7491 35.6027 25.4589 35.409 25.2143 35.1647C24.9698 34.9205 24.7758 34.6304 24.6433 34.3111C24.5109 33.9919 24.4426 33.6496 24.4425 33.304C24.4425 31.853 25.6235 30.672 27.0759 30.672ZM27.0759 29.9971C26.6415 29.9969 26.2113 30.0823 25.8099 30.2484C25.4086 30.4145 25.0439 30.6581 24.7366 30.9652C24.4294 31.2723 24.1857 31.6369 24.0194 32.0382C23.8532 32.4395 23.7676 32.8696 23.7676 33.304C23.7676 34.1805 24.1158 35.0211 24.7356 35.6409C25.3554 36.2607 26.196 36.6089 27.0725 36.6089C27.949 36.6089 28.7896 36.2607 29.4094 35.6409C30.0292 35.0211 30.3774 34.1805 30.3774 33.304C30.3779 32.87 30.2929 32.4402 30.1273 32.0391C29.9616 31.638 29.7185 31.2735 29.4119 30.9664C29.1053 30.6593 28.7412 30.4156 28.3403 30.2493C27.9395 30.0829 27.5098 29.9972 27.0759 29.9971Z" fill="black"/>
<path d="M28.1625 33.3054C28.1632 33.4485 28.1356 33.5904 28.0812 33.7228C28.0268 33.8551 27.9467 33.9754 27.8456 34.0767C27.7444 34.178 27.6242 34.2582 27.4919 34.3128C27.3596 34.3674 27.2178 34.3952 27.0746 34.3946C26.9314 34.3954 26.7894 34.3677 26.6569 34.3132C26.5245 34.2587 26.4041 34.1785 26.3028 34.0772C26.2015 33.9759 26.1213 33.8555 26.0668 33.7231C26.0123 33.5906 25.9846 33.4486 25.9854 33.3054C25.9854 33.0167 26.1001 32.7398 26.3042 32.5356C26.5084 32.3315 26.7852 32.2168 27.0739 32.2168C27.3627 32.2168 27.6395 32.3315 27.8437 32.5356C28.0478 32.7398 28.1625 33.0167 28.1625 33.3054Z" fill="black"/>
<path d="M43.209 12.1121C43.209 12.1121 50.3294 12.9374 51.5884 13.2844C52.4136 13.5023 53.2389 14.0652 53.6283 15.3243C53.9753 16.5833 54.8006 23.7037 54.8006 23.7037L55.3211 23.7037C55.3211 23.7037 56.1463 16.5833 56.4934 15.3243C56.7395 14.3175 57.5264 13.5306 58.5333 13.2844C59.7923 12.9374 66.9127 12.1121 66.9127 12.1121L66.9127 11.5916C66.9127 11.5916 59.7923 10.7663 58.5333 10.4193C57.5345 10.157 56.7557 9.37616 56.4934 8.37943C56.1463 7.12039 55.3211 7.51472e-08 55.3211 7.51472e-08L54.8006 7.19175e-08C54.8006 7.19175e-08 53.9753 7.12039 53.6283 8.37943C53.3821 9.38625 52.5952 10.1731 51.5884 10.4193C50.3294 10.7663 43.209 11.5916 43.209 11.5916L43.209 12.1121Z" fill="white"/>
</svg>
