<svg width="44" height="62" viewBox="0 0 44 62" fill="none" xmlns="http://www.w3.org/2000/svg">
<path d="M16 49C21.52 49 26 44.52 26 39V27C26 21.48 21.52 17 16 17C10.48 17 6 21.48 6 27V39C6 44.52 10.48 49 16 49Z" fill="url(#paint0_linear_1860_38901)"/>
<path opacity="0.5" d="M18 56C26.21 55.33 32 48.38 32 40H28C28 47.37 23.37 52 16 52C8.63 52 4 47.37 4 40H0C0 48.38 5.79 55.33 14 56V58H4V62H28V58H18V56Z" fill="url(#paint1_linear_1860_38901)"/>
<path d="M20 12.1121C20 12.1121 27.1204 12.9374 28.3794 13.2844C29.2047 13.5023 30.0299 14.0652 30.4193 15.3243C30.7663 16.5833 31.5916 23.7037 31.5916 23.7037L32.1121 23.7037C32.1121 23.7037 32.9374 16.5833 33.2844 15.3243C33.5306 14.3175 34.3175 13.5306 35.3243 13.2844C36.5833 12.9374 43.7037 12.1121 43.7037 12.1121L43.7037 11.5916C43.7037 11.5916 36.5833 10.7663 35.3243 10.4193C34.3255 10.157 33.5467 9.37616 33.2844 8.37943C32.9374 7.12039 32.1121 7.51472e-08 32.1121 7.51472e-08L31.5916 7.19175e-08C31.5916 7.19175e-08 30.7663 7.12039 30.4193 8.37943C30.1731 9.38625 29.3862 10.1731 28.3794 10.4193C27.1204 10.7663 20 11.5916 20 11.5916L20 12.1121Z" fill="url(#paint2_linear_1860_38901)"/>
<defs>
<linearGradient id="paint0_linear_1860_38901" x1="15.5719" y1="49" x2="28.3199" y2="43.8056" gradientUnits="userSpaceOnUse">
<stop stop-color="#41C9FE"/>
<stop offset="1" stop-color="#2B87AA"/>
</linearGradient>
<linearGradient id="paint1_linear_1860_38901" x1="15.315" y1="62" x2="27.8374" y2="50.1251" gradientUnits="userSpaceOnUse">
<stop stop-color="#41C9FE"/>
<stop offset="1" stop-color="#2B87AA"/>
</linearGradient>
<linearGradient id="paint2_linear_1860_38901" x1="31.3445" y1="23.7037" x2="43.7071" y2="15.6439" gradientUnits="userSpaceOnUse">
<stop stop-color="#41C9FE"/>
<stop offset="1" stop-color="#2B87AA"/>
</linearGradient>
</defs>
</svg>
