<svg xmlns="http://www.w3.org/2000/svg" width="24" height="24" fill="none" viewBox="0 0 24 24" ><path fill="currentColor" fill-rule="evenodd" d="M2 13.655c0-5.145 2.87-10.9 7.09-12.54 1.175-.46 2.41.51 2.41 1.89V20.52c0 1.23-.99 2.15-2.09 1.98C5.02 21.83 2 18.93 2 13.655m2.6-1.985a.63.63 0 0 0-.78-.42c-.33.1-.52.45-.405.775.17.57.73 1.1 1.39 1.32q.344.111.695.11c.505 0 1.02-.18 1.485-.525.896-.667 2.376-.618 2.466-.615h.004a.615.615 0 0 0 .655-.59.62.62 0 0 0-.61-.655c-.123-.003-.715-.019-1.43.115a1.8 1.8 0 0 0-.625-.775c.095-.44.275-.915.635-1.11.435-.234 1.029.005 1.106.037l.009.003c.3.145.675.035.835-.26a.614.614 0 0 0-.225-.825c-.005 0-.46-.335-1.1-1.65-.47-.97.51-1.57.71-1.68a.626.626 0 0 0-.59-1.105c-.785.42-2.06 1.655-1.245 3.33.16.33.31.61.455.85-.18.04-.365.105-.545.2q-.831.442-1.175 1.56c-.43-.29-.66-.655-.51-1.575a.623.623 0 1 0-1.23-.2c-.34 2.1.845 2.73 1.63 3.145.35.185.545.3.65.44q-.331.149-.625.365c-.355.265-.71.34-1.045.23-.34-.115-.55-.38-.585-.495m4.51 8.955h.04a.624.624 0 0 0 .04-1.25c-.81-.05-1.1-.635-1.135-.71a.63.63 0 0 0-.815-.33.624.624 0 0 0-.34.815c.025.06.585 1.37 2.21 1.475m.88-3.205a.623.623 0 0 0-.44-.765 9 9 0 0 0-.915-.195c.01-.54.17-1.405 1.06-1.685a.626.626 0 1 0-.375-1.195c-1.125.35-1.64 1.215-1.835 2.055-1.74-2.065-3.62-1.365-3.71-1.33a.63.63 0 0 0-.355.81.63.63 0 0 0 .81.355c.04-.014 1.163-.404 2.34 1.03-.54.11-1.08.31-1.59.645a.626.626 0 0 0 .345 1.145c.12 0 .24-.035.345-.105 1.145-.755 2.565-.595 3.555-.325.33.09.675-.105.765-.44M12.5 3.005c0-1.38 1.235-2.35 2.41-1.89C19.13 2.755 22 8.51 22 13.655c0 5.275-3.02 8.175-7.41 8.85-1.1.165-2.09-.755-2.09-1.98zm1.588 7.38h-.003a.625.625 0 0 0 .325 1.205c.035-.01.905-.215 1.845.48.445.325.95.495 1.47.495q.406 0 .82-.135c.83-.275 1.61-.975 1.805-1.63a.62.62 0 0 0-.065-.505.6.6 0 0 0-.42-.29c-.395-.07-1.295-.385-1.53-.89-.05-.095-.185-.395.175-1.02q.017-.028.025-.063a.4.4 0 0 1 .026-.067q.01-.014.014-.035v-.025c.4-1.775-1.06-2.93-1.125-2.98a.626.626 0 0 0-.77.985c.035.025.725.59.705 1.42-.48.155-1.265.3-1.705-.055-.505-.41-.59-1.525-.23-3.14a.625.625 0 1 0-1.22-.27c-.485 2.195-.27 3.63.665 4.385.645.525 1.46.555 2.125.455-.02.39.065.705.175.94.31.665.955 1.07 1.505 1.305-.155.115-.34.225-.55.295-.425.14-.8.08-1.15-.18-1.424-1.058-2.822-.703-2.912-.68m.552 10.245a2.73 2.73 0 0 0 2.355-1.565.63.63 0 0 0-.335-.815.636.636 0 0 0-.82.325c-.01.03-.34.745-1.28.805a.63.63 0 0 0-.585.665c.025.33.3.585.625.585zm1.605-6.1c.215.32.62.76 1.275.905.81.175 1.705-.175 2.645-1.035a.625.625 0 1 0-.845-.925c-.605.555-1.145.82-1.53.74-.39-.08-.59-.52-.59-.52a.62.62 0 0 0-.49-.38c-1.025-.14-1.825.09-2.37.68-1.015 1.095-.645 2.96-.6 3.17a.63.63 0 0 0 .775.47c1.085-.295 2.645-.475 3.905.36a.62.62 0 0 0 .865-.175.62.62 0 0 0-.175-.865c-1.38-.91-2.955-.915-4.215-.685-.015-.48.05-1.085.365-1.425.205-.225.54-.33.985-.315" clip-rule="evenodd"></path></svg>