<svg width="48" height="95" viewBox="0 0 48 95" fill="none" xmlns="http://www.w3.org/2000/svg">
<path d="M33.6359 26.5274C33.4031 26.5274 33.1735 26.4733 32.9652 26.3693L16.4482 18.1108C16.2183 17.9973 16.0214 17.8266 15.8763 17.6151C15.7313 17.4036 15.643 17.1584 15.6199 16.903C15.5968 16.6476 15.6396 16.3906 15.7443 16.1565C15.8491 15.9224 16.0121 15.7192 16.218 15.5662L27.2293 7.30772C27.3971 7.1807 27.5898 7.09053 27.7949 7.0431C27.9999 6.99568 28.2127 6.99207 28.4192 7.03251C28.6258 7.07294 28.8215 7.15652 28.9935 7.27778C29.1655 7.39903 29.31 7.55523 29.4175 7.73616L37.676 21.5003C37.8482 21.7874 37.9194 22.1239 37.8784 22.4561C37.8374 22.7884 37.6866 23.0975 37.4498 23.3342L34.697 26.087C34.4157 26.3687 34.034 26.5271 33.6359 26.5274Z" fill="black"/>
<path d="M28.1307 8.50821L36.3892 22.2723L33.6364 25.0252L17.1194 16.7667L28.1307 8.50821ZM28.1307 5.50513C27.4861 5.50513 26.8534 5.71334 26.3289 6.10574L15.3175 14.3642C14.9078 14.6713 14.5835 15.078 14.3752 15.5458C14.167 16.0135 14.0818 16.5267 14.1277 17.0367C14.1736 17.5466 14.3492 18.0363 14.6377 18.4593C14.9262 18.8823 15.318 19.2245 15.776 19.4534L32.293 27.7119C32.8567 27.9936 33.4946 28.0908 34.1166 27.9898C34.7385 27.8889 35.313 27.5948 35.7586 27.1493L38.5114 24.3965C38.9849 23.9231 39.2866 23.305 39.3686 22.6405C39.4506 21.9759 39.3081 21.3031 38.9639 20.7288L30.7054 6.96463C30.4388 6.51973 30.0615 6.15147 29.6103 5.89569C29.1591 5.63992 28.6494 5.50536 28.1307 5.50513ZM4.7927 92.5945C4.44366 92.5942 4.10563 92.4723 3.83671 92.2498C3.5678 92.0273 3.3848 91.7181 3.31918 91.3753C-3.03736 58.2513 9.65371 30.1825 9.78184 29.9022C9.90195 29.6416 10.0942 29.4209 10.3358 29.2662C10.5774 29.1115 10.8583 29.0293 11.1452 29.0293H20.659C21.0573 29.0293 21.4392 29.1875 21.7208 29.4691C22.0024 29.7507 22.1606 30.1326 22.1606 30.5308V40.5991L43.4865 50.8697C43.919 51.0779 44.2273 51.4823 44.3134 51.9548C46.7559 65.4867 46.7699 78.7483 44.3514 91.3733C44.2857 91.7164 44.1024 92.0259 43.8331 92.2485C43.5638 92.471 43.2253 92.5927 42.8759 92.5925L4.7927 92.5945Z" fill="black"/>
<path d="M20.6591 30.5316V41.5429L42.8339 52.2239C44.7439 62.8008 45.6909 76.3967 42.876 91.0938H4.79278C-1.54574 58.0599 11.1453 30.5316 11.1453 30.5316H20.6591ZM20.6591 27.5286H11.1453C10.5715 27.5286 10.0097 27.6931 9.52649 28.0025C9.04324 28.3119 8.65875 28.7533 8.41851 29.2744C7.88396 30.4335 -4.60289 58.0639 1.84375 91.6604C1.97546 92.346 2.34192 92.9642 2.88013 93.4089C3.41833 93.8536 4.09465 94.0968 4.79278 94.0969H42.874C43.5724 94.0967 44.2489 93.8532 44.7872 93.4081C45.3254 92.9631 45.6917 92.3443 45.823 91.6584C48.2755 78.8512 48.2635 65.4034 45.787 51.6894C45.7028 51.2226 45.5092 50.7824 45.2221 50.4048C44.935 50.0272 44.5626 49.723 44.1353 49.5171L23.6602 39.655V30.5316C23.6622 28.8739 22.3188 27.5286 20.6591 27.5286Z" fill="black"/>
<path d="M11.1453 29.28C10.7471 29.28 10.3652 29.1218 10.0836 28.8402C9.80198 28.5586 9.64378 28.1767 9.64378 27.7784C9.64378 23.1637 8.08417 19.6501 4.87287 17.0374C4.62268 16.8334 4.44492 16.5541 4.36594 16.2411C4.28696 15.9281 4.31097 15.5979 4.43442 15.2996L9.7579 2.42842C9.87155 2.15401 10.064 1.91948 10.311 1.75448C10.558 1.58948 10.8483 1.50143 11.1453 1.50146H39.7007C40.0989 1.50146 40.4809 1.65966 40.7625 1.94126C41.0441 2.22285 41.2023 2.60477 41.2023 3.00301V11.2615C41.2023 11.6594 41.0443 12.041 40.7632 12.3225C40.482 12.6041 40.1006 12.7625 39.7027 12.763C38.986 12.765 22.1607 12.9772 22.1607 27.7784C22.1607 28.1767 22.0025 28.5586 21.7209 28.8402C21.4393 29.1218 21.0573 29.28 20.6591 29.28H11.1453Z" fill="black"/>
<path d="M39.7004 3.00333V11.2618C39.7004 11.2618 20.6588 11.2618 20.6588 27.7788H11.145C11.145 22.0309 8.82664 18.319 5.82154 15.8745L11.145 3.00333H39.7004ZM39.7004 0.000244141H11.145C10.5508 0.000340604 9.96991 0.176738 9.47595 0.507107C8.982 0.837477 8.59717 1.30697 8.37016 1.85615L3.04668 14.7274C2.79954 15.3244 2.75157 15.9853 2.90991 16.6118C3.06825 17.2383 3.42444 17.797 3.92559 18.2049C6.76251 20.5133 8.14193 23.6465 8.14193 27.7808C8.14193 28.5772 8.45833 29.3411 9.02151 29.9043C9.5847 30.4674 10.3486 30.7838 11.145 30.7838H20.6588C21.4553 30.7838 22.2191 30.4674 22.7823 29.9043C23.3455 29.3411 23.6619 28.5772 23.6619 27.7808C23.6619 14.421 39.0457 14.2669 39.7004 14.2669C40.4969 14.2669 41.2607 13.9505 41.8239 13.3873C42.3871 12.8241 42.7035 12.0603 42.7035 11.2638V3.00333C42.7035 2.20686 42.3871 1.44301 41.8239 0.879827C41.2607 0.316639 40.4969 0.000244141 39.7004 0.000244141Z" fill="black"/>
<path d="M33.6359 26.5274C33.4031 26.5274 33.1735 26.4733 32.9652 26.3693L16.4482 18.1108C16.2183 17.9973 16.0214 17.8266 15.8763 17.6151C15.7313 17.4036 15.643 17.1584 15.6199 16.903C15.5968 16.6476 15.6396 16.3906 15.7443 16.1565C15.8491 15.9224 16.0121 15.7192 16.218 15.5662L27.2293 7.30772C27.3971 7.1807 27.5898 7.09053 27.7949 7.0431C27.9999 6.99568 28.2127 6.99207 28.4192 7.03251C28.6258 7.07294 28.8215 7.15652 28.9935 7.27778C29.1655 7.39903 29.31 7.55523 29.4175 7.73616L37.676 21.5003C37.8482 21.7874 37.9194 22.1239 37.8784 22.4561C37.8374 22.7884 37.6866 23.0975 37.4498 23.3342L34.697 26.087C34.4157 26.3687 34.034 26.5271 33.6359 26.5274Z" fill="#8A8A8A"/>
<path d="M28.1304 8.50821L36.3889 22.2723L33.636 25.0252L17.119 16.7667L28.1304 8.50821ZM28.1304 5.50513C27.4857 5.50513 26.8531 5.71334 26.3285 6.10574L15.3172 14.3642C14.9075 14.6713 14.5831 15.078 14.3749 15.5458C14.1666 16.0135 14.0814 16.5267 14.1273 17.0367C14.1733 17.5466 14.3488 18.0363 14.6373 18.4593C14.9258 18.8823 15.3177 19.2245 15.7757 19.4534L32.2927 27.7119C32.8563 27.9936 33.4943 28.0908 34.1162 27.9898C34.7382 27.8889 35.3126 27.5948 35.7582 27.1493L38.5111 24.3965C38.9846 23.9231 39.2863 23.305 39.3683 22.6405C39.4503 21.9759 39.3078 21.3031 38.9635 20.7288L30.705 6.96463C30.4384 6.51973 30.0612 6.15146 29.61 5.89569C29.1588 5.63992 28.649 5.50536 28.1304 5.50513Z" fill="black"/>
<path d="M4.7927 92.5953C4.44366 92.595 4.10563 92.4731 3.83671 92.2506C3.5678 92.0281 3.3848 91.7188 3.31918 91.376C-3.03736 58.252 9.65371 30.1832 9.78184 29.9029C9.90195 29.6424 10.0942 29.4217 10.3358 29.267C10.5774 29.1123 10.8583 29.0301 11.1452 29.03H20.659C21.0573 29.03 21.4392 29.1882 21.7208 29.4698C22.0024 29.7514 22.1606 30.1333 22.1606 30.5316V40.5999L43.4865 50.8704C43.919 51.0787 44.2273 51.4831 44.3134 51.9556C46.7559 65.4874 46.7699 78.749 44.3514 91.374C44.2857 91.7172 44.1024 92.0267 43.8331 92.2492C43.5638 92.4718 43.2253 92.5934 42.8759 92.5933L4.7927 92.5953Z" fill="white"/>
<path d="M20.6591 30.5316V41.5429L42.8339 52.2239C44.7439 62.8008 45.6909 76.3967 42.876 91.0938H4.79278C-1.54574 58.0599 11.1453 30.5316 11.1453 30.5316H20.6591ZM20.6591 27.5286H11.1453C10.5715 27.5286 10.0097 27.6931 9.52649 28.0025C9.04324 28.3119 8.65875 28.7533 8.41851 29.2744C7.88396 30.4335 -4.60289 58.0639 1.84375 91.6604C1.97546 92.346 2.34192 92.9642 2.88013 93.4089C3.41833 93.8536 4.09465 94.0968 4.79278 94.0969H42.874C43.5724 94.0967 44.2489 93.8532 44.7872 93.4081C45.3254 92.9631 45.6917 92.3443 45.823 91.6584C48.2755 78.8512 48.2635 65.4034 45.787 51.6894C45.7028 51.2226 45.5092 50.7824 45.2221 50.4048C44.935 50.0272 44.5626 49.723 44.1353 49.5171L23.6602 39.655V30.5316C23.6622 28.8739 22.3188 27.5286 20.6591 27.5286Z" fill="black"/>
<path d="M11.1455 28.7797C10.88 28.7797 10.6254 28.6742 10.4377 28.4865C10.2499 28.2988 10.1445 28.0441 10.1445 27.7786C10.1445 23.0698 8.47676 19.326 5.18938 16.6492C5.02244 16.5132 4.90384 16.3269 4.85118 16.1181C4.79853 15.9092 4.81462 15.689 4.89708 15.49L10.2206 2.62083C10.2962 2.43777 10.4245 2.28127 10.5892 2.17115C10.7538 2.06103 10.9474 2.00223 11.1455 2.0022H39.7009C39.9664 2.0022 40.221 2.10766 40.4087 2.29539C40.5965 2.48312 40.7019 2.73774 40.7019 3.00322V11.2617C40.7019 11.5272 40.5965 11.7818 40.4087 11.9695C40.221 12.1573 39.9664 12.2627 39.7009 12.2627C38.9641 12.2627 21.6603 12.4689 21.6603 27.7786C21.6603 28.0441 21.5549 28.2988 21.3671 28.4865C21.1794 28.6742 20.9248 28.7797 20.6593 28.7797H11.1455Z" fill="white"/>
<path d="M39.7006 3.00303V11.2615C39.7006 11.2615 20.659 11.2615 20.659 27.7785H11.1453C11.1453 22.0306 8.82687 18.3187 5.82178 15.8742L11.1453 3.00303H39.7006ZM39.7006 1.00098H11.1453C10.7491 1.00104 10.3618 1.11864 10.0325 1.33889C9.70324 1.55913 9.44669 1.87212 9.29535 2.23825L3.97187 15.1095C3.80718 15.5076 3.77531 15.9482 3.88099 16.3659C3.98667 16.7835 4.22426 17.156 4.55848 17.4278C7.64365 19.9384 9.1432 23.3259 9.1432 27.7805C9.1432 28.3114 9.35413 28.8207 9.72959 29.1961C10.105 29.5716 10.6143 29.7825 11.1453 29.7825H20.659C21.19 29.7825 21.6993 29.5716 22.0747 29.1961C22.4502 28.8207 22.6611 28.3114 22.6611 27.7805C22.6611 13.4297 39.0039 13.2656 39.7006 13.2656C40.2316 13.2656 40.7409 13.0546 41.1163 12.6792C41.4918 12.3037 41.7027 11.7945 41.7027 11.2635V3.00303C41.7027 2.47205 41.4918 1.96282 41.1163 1.58736C40.7409 1.21191 40.2316 1.00098 39.7006 1.00098Z" fill="black"/>
</svg>
