<svg width="138" height="98" viewBox="0 0 138 98" fill="none" xmlns="http://www.w3.org/2000/svg">
<g filter="url(#filter0_d_1434_443234)">
<path fill-rule="evenodd" clip-rule="evenodd" d="M6.01924 38.5749C6.53086 30.684 13.0803 24.5454 20.9878 24.5454H116.028C123.935 24.5454 130.485 30.684 130.996 38.5749L132.999 69.4566C133.281 73.8145 130.017 77.5938 125.664 77.9479L125.297 77.9777L125.5 81.5454C125.762 86.1349 122.11 90 117.513 90H19.5024C14.9054 90 11.2541 86.1349 11.5153 81.5454L11.7183 77.9777L11.3516 77.9479C6.99891 77.5938 3.73443 73.8145 4.01699 69.4566L6.01924 38.5749Z" fill="#D3D3D3"/>
</g>
<path fill-rule="evenodd" clip-rule="evenodd" d="M16.5515 58.6081C16.756 56.0067 18.9266 54 21.5361 54H55.5075V82.7273C55.5075 84.9364 53.7166 86.7273 51.5075 86.7273H19.7493C16.8334 86.7273 14.5362 84.2423 14.7647 81.3354L16.5515 58.6081Z" fill="#439AC1"/>
<path fill-rule="evenodd" clip-rule="evenodd" d="M81.5078 54H115.479C118.089 54 120.259 56.0067 120.464 58.6081L122.251 81.3354C122.479 84.2423 120.182 86.7273 117.266 86.7273H85.5078C83.2987 86.7273 81.5078 84.9364 81.5078 82.7273V54Z" fill="#646464"/>
<path d="M58.2158 54H78.7992V75.1818C78.7992 77.9432 76.5606 80.1818 73.7992 80.1818H63.2158C60.4544 80.1818 58.2158 77.9432 58.2158 75.1818V54Z" fill="#646464"/>
<path fill-rule="evenodd" clip-rule="evenodd" d="M24.5908 32.7273H30.5492L32.1742 0H40.8408L42.4658 32.7273H48.4242L35.9658 44.7273L24.5908 32.7273Z" fill="url(#paint0_linear_1434_443234)"/>
<defs>
<filter id="filter0_d_1434_443234" x="0" y="24.5454" width="137.016" height="73.4546" filterUnits="userSpaceOnUse" color-interpolation-filters="sRGB">
<feFlood flood-opacity="0" result="BackgroundImageFix"/>
<feColorMatrix in="SourceAlpha" type="matrix" values="0 0 0 0 0 0 0 0 0 0 0 0 0 0 0 0 0 0 127 0" result="hardAlpha"/>
<feOffset dy="4"/>
<feGaussianBlur stdDeviation="2"/>
<feComposite in2="hardAlpha" operator="out"/>
<feColorMatrix type="matrix" values="0 0 0 0 0 0 0 0 0 0 0 0 0 0 0 0 0 0 0.4 0"/>
<feBlend mode="normal" in2="BackgroundImageFix" result="effect1_dropShadow_1434_443234"/>
<feBlend mode="normal" in="SourceGraphic" in2="effect1_dropShadow_1434_443234" result="shape"/>
</filter>
<linearGradient id="paint0_linear_1434_443234" x1="25.7764" y1="0" x2="25.7764" y2="40.2775" gradientUnits="userSpaceOnUse">
<stop stop-color="#FBFBFB" stop-opacity="0.01"/>
<stop offset="1" stop-color="white"/>
</linearGradient>
</defs>
</svg>
