<svg width="75" height="68" viewBox="0 0 75 68" fill="none" xmlns="http://www.w3.org/2000/svg">
<path d="M37.0001 11.3335C21.7001 11.3335 9.29639 20.3536 9.29639 31.4816C9.29639 36.8335 12.1713 41.6942 16.8519 45.302V61.7039L28.0153 50.5405C30.8335 51.2432 33.8545 51.6298 37.0001 51.6298C52.3001 51.6298 64.7038 42.6097 64.7038 31.4816C64.7038 20.3536 52.3001 11.3335 37.0001 11.3335ZM37.0001 46.5928L29.8047 39.0372H19.3705V23.9261H29.8047L37.0001 16.3705V46.5928ZM41.4516 36.7793L39.671 34.9988C40.6104 34.0593 41.1279 32.8102 41.1279 31.4816C41.1279 30.1531 40.6104 28.9039 39.671 27.9645L41.4516 26.1839C42.867 27.5993 43.6465 29.4807 43.6465 31.4816C43.6465 33.4826 42.867 35.3639 41.4516 36.7793ZM44.0784 39.4062C48.448 35.0365 48.448 27.9268 44.0784 23.5571L45.859 21.7765C51.2108 27.1284 51.2108 35.8362 45.859 41.1868L44.0784 39.4062ZM50.2664 45.5942L48.4858 43.8136C55.2845 37.0148 55.2845 25.9497 48.4858 19.1497L50.2664 17.3691C54.0353 21.1381 56.1131 26.1512 56.1131 31.4816C56.1131 36.8121 54.0353 41.8252 50.2664 45.5942Z" fill="url(#paint0_linear_1324_71282)"/>
<defs>
<linearGradient id="paint0_linear_1324_71282" x1="35.8141" y1="61.7039" x2="63.0084" y2="42.2016" gradientUnits="userSpaceOnUse">
<stop stop-color="#41C9FE"/>
<stop offset="1" stop-color="#2B87AA"/>
</linearGradient>
</defs>
</svg>
