<svg width="75" height="68" viewBox="0 0 75 68" fill="none" xmlns="http://www.w3.org/2000/svg">
<g clip-path="url(#clip0_1324_71284)">
<path d="M29.9557 10.9141L54.0381 34.9965L29.9557 59.087L5.86751 34.9965L29.9557 10.9141ZM29.9557 9.1709C29.5095 9.1709 29.0644 9.34057 28.7239 9.68106L4.63452 33.7623C4.30822 34.0897 4.125 34.5331 4.125 34.9953C4.125 35.4575 4.30822 35.9009 4.63452 36.2283L28.7239 60.3188C29.0508 60.6456 29.4941 60.8292 29.9563 60.8292C30.4185 60.8292 30.8618 60.6456 31.1887 60.3188L55.2711 36.2271C55.5979 35.9002 55.7815 35.4569 55.7815 34.9947C55.7815 34.5325 55.5979 34.0892 55.2711 33.7623L31.1887 9.68106C31.0268 9.51922 30.8345 9.39087 30.623 9.30333C30.4114 9.2158 30.1847 9.17079 29.9557 9.1709Z" fill="url(#paint0_linear_1324_71284)"/>
<path d="M1.74316 43.7298C1.51201 43.7298 1.29032 43.6379 1.12686 43.4745C0.963409 43.311 0.871582 43.0893 0.871582 42.8582V27.1348C0.87157 26.9852 0.910081 26.8381 0.983407 26.7077C1.05673 26.5772 1.1624 26.4679 1.29025 26.3901C1.41809 26.3123 1.5638 26.2688 1.71334 26.2637C1.86289 26.2586 2.01123 26.292 2.14409 26.3609L17.3096 34.2225C17.4508 34.2966 17.5691 34.4078 17.6516 34.5443C17.7341 34.6807 17.7777 34.8371 17.7777 34.9965C17.7777 35.1559 17.7341 35.3123 17.6516 35.4488C17.5691 35.5852 17.4508 35.6964 17.3096 35.7705L2.14409 43.6321C2.01945 43.6943 1.88243 43.7277 1.74316 43.7298Z" fill="url(#paint1_linear_1324_71284)"/>
<path d="M1.74317 27.1348L16.9087 34.9964L1.74317 42.8581V27.1348ZM1.74317 25.3916C1.51408 25.391 1.28713 25.4357 1.07537 25.523C0.863598 25.6104 0.671189 25.7388 0.5092 25.9008C0.347209 26.0628 0.218832 26.2552 0.131447 26.467C0.0440625 26.6787 -0.000607125 26.9057 6.23173e-06 27.1348V42.8581C-0.000607125 43.0872 0.0440625 43.3141 0.131447 43.5259C0.218832 43.7377 0.347209 43.9301 0.5092 44.0921C0.671189 44.2541 0.863598 44.3825 1.07537 44.4698C1.28713 44.5572 1.51408 44.6019 1.74317 44.6013C2.01743 44.6013 2.29401 44.5362 2.54503 44.406L17.7106 36.5432C17.9946 36.3966 18.2329 36.1746 18.3992 35.9015C18.5655 35.6285 18.6535 35.315 18.6535 34.9953C18.6535 34.6756 18.5655 34.362 18.3992 34.089C18.2329 33.816 17.9946 33.594 17.7106 33.4473L2.54503 25.5868C2.29722 25.4585 2.02223 25.3916 1.74317 25.3916ZM29.1655 38.8023C32.4345 38.8023 35.6268 38.5583 38.775 38.1109C39.0225 35.7382 39.1439 33.3541 39.1387 30.9686C39.1387 28.5398 39.0225 26.147 38.775 23.7856C35.5919 23.3328 32.3806 23.1083 29.1655 23.1139C25.8895 23.1139 22.6716 23.3347 19.5525 23.7856C19.2985 26.1715 19.172 28.5692 19.1737 30.9686C19.1737 33.3927 19.298 35.7553 19.5525 38.1109C22.6716 38.5583 25.8883 38.8023 29.1655 38.8023Z" fill="url(#paint2_linear_1324_71284)"/>
<path opacity="0.5" d="M43.2082 28.5235C42.2185 28.3852 41.2258 28.2694 40.2309 28.176C40.2657 29.0999 40.3018 30.0249 40.3018 30.9686C40.3018 33.4915 40.1809 35.868 39.931 38.2329L39.8369 39.1347L38.9398 39.2614C35.7025 39.7243 32.4366 39.9588 29.1664 39.9633C27.3698 39.9633 25.5558 39.8831 23.7417 39.739C23.8045 40.7791 23.88 41.8157 23.9927 42.8488C30.3652 43.7698 36.8369 43.7698 43.2094 42.8488C43.4611 40.476 43.5845 38.0914 43.5789 35.7053C43.581 33.3065 43.4573 30.9093 43.2082 28.5235Z" fill="url(#paint3_linear_1324_71284)"/>
<path d="M19.4443 44.7153H28.1218V46.885H19.4443V44.7153Z" fill="url(#paint4_linear_1324_71284)"/>
<path d="M29.1585 34.9896C26.6077 34.9896 24.66 33.9437 23.4723 33.0722C22.1905 32.1274 21.513 31.1849 21.4828 31.1512L21.3491 30.9595L21.4828 30.7735C21.513 30.7328 22.1905 29.7915 23.4723 28.8456C24.66 27.974 26.6077 26.9304 29.1585 26.9304C31.7093 26.9304 33.6559 27.974 34.8401 28.8456C36.1253 29.7915 36.8087 30.734 36.8366 30.7735L36.9679 30.9595L36.8366 31.1512C36.8087 31.1849 36.1265 32.1274 34.8401 33.0722C33.6559 33.9426 31.7082 34.9896 29.1585 34.9896Z" fill="url(#paint5_linear_1324_71284)"/>
<path d="M29.1584 33.5125C28.8226 33.5127 28.4902 33.4467 28.1799 33.3183C27.8697 33.19 27.5877 33.0018 27.3502 32.7645C27.1127 32.5272 26.9243 32.2455 26.7956 31.9353C26.667 31.6252 26.6007 31.2928 26.6006 30.957C26.6006 29.5474 27.7476 28.4004 29.1584 28.4004C29.8269 28.4146 30.4631 28.6902 30.9309 29.168C31.3986 29.6458 31.6605 30.2878 31.6605 30.9565C31.6605 31.6251 31.3986 32.2671 30.9309 32.7449C30.4631 33.2227 29.8269 33.4983 29.1584 33.5125Z" fill="url(#paint6_linear_1324_71284)"/>
<path d="M29.1584 28.6909C29.7504 28.7043 30.3136 28.9489 30.7275 29.3723C31.1414 29.7957 31.3732 30.3643 31.3732 30.9565C31.3732 31.5486 31.1414 32.1172 30.7275 32.5406C30.3136 32.964 29.7504 33.2086 29.1584 33.222C28.8608 33.2221 28.5661 33.1637 28.2911 33.0499C28.0161 32.9362 27.7662 32.7694 27.5557 32.5591C27.3451 32.3488 27.1781 32.099 27.0641 31.8241C26.95 31.5493 26.8913 31.2546 26.8911 30.957C26.8911 29.7078 27.908 28.6909 29.1584 28.6909ZM29.1584 28.1099C28.7844 28.1097 28.414 28.1832 28.0685 28.3263C27.7229 28.4693 27.4089 28.679 27.1444 28.9434C26.8799 29.2078 26.6701 29.5217 26.5269 29.8672C26.3837 30.2127 26.3101 30.583 26.3101 30.957C26.3101 31.7117 26.6098 32.4354 27.1435 32.9691C27.6771 33.5027 28.4008 33.8025 29.1555 33.8025C29.9101 33.8025 30.6339 33.5027 31.1675 32.9691C31.7011 32.4354 32.0009 31.7117 32.0009 30.957C32.0014 30.5834 31.9282 30.2133 31.7856 29.868C31.6429 29.5227 31.4336 29.2088 31.1697 28.9444C30.9057 28.68 30.5922 28.4702 30.2471 28.327C29.902 28.1838 29.532 28.11 29.1584 28.1099Z" fill="black"/>
<path d="M30.0942 30.9582C30.0948 31.0815 30.071 31.2036 30.0242 31.3176C29.9774 31.4316 29.9084 31.5351 29.8213 31.6223C29.7342 31.7095 29.6307 31.7786 29.5168 31.8256C29.4029 31.8726 29.2808 31.8965 29.1576 31.8961C29.0342 31.8967 28.912 31.8728 28.7979 31.8259C28.6839 31.779 28.5803 31.71 28.493 31.6227C28.4058 31.5355 28.3368 31.4319 28.2899 31.3179C28.243 31.2038 28.2191 31.0816 28.2197 30.9582C28.2197 30.7097 28.3185 30.4713 28.4942 30.2955C28.67 30.1197 28.9084 30.021 29.157 30.021C29.4056 30.021 29.6439 30.1197 29.8197 30.2955C29.9955 30.4713 30.0942 30.7097 30.0942 30.9582Z" fill="black"/>
</g>
<defs>
<linearGradient id="paint0_linear_1324_71284" x1="28.8475" y1="60.8292" x2="55.7894" y2="43.265" gradientUnits="userSpaceOnUse">
<stop stop-color="#41C9FE"/>
<stop offset="1" stop-color="#2B87AA"/>
</linearGradient>
<linearGradient id="paint1_linear_1324_71284" x1="8.96276" y1="43.7298" x2="17.9494" y2="38.0589" gradientUnits="userSpaceOnUse">
<stop stop-color="#41C9FE"/>
<stop offset="1" stop-color="#2B87AA"/>
</linearGradient>
<linearGradient id="paint2_linear_1324_71284" x1="18.7316" y1="44.6013" x2="30.8009" y2="30.2689" gradientUnits="userSpaceOnUse">
<stop stop-color="#41C9FE"/>
<stop offset="1" stop-color="#2B87AA"/>
</linearGradient>
<linearGradient id="paint3_linear_1324_71284" x1="33.2358" y1="43.5396" x2="41.8647" y2="36.2757" gradientUnits="userSpaceOnUse">
<stop stop-color="#41C9FE"/>
<stop offset="1" stop-color="#2B87AA"/>
</linearGradient>
<linearGradient id="paint4_linear_1324_71284" x1="23.5973" y1="46.885" x2="24.4243" y2="44.7287" gradientUnits="userSpaceOnUse">
<stop stop-color="#41C9FE"/>
<stop offset="1" stop-color="#2B87AA"/>
</linearGradient>
<linearGradient id="paint5_linear_1324_71284" x1="28.8242" y1="34.9896" x2="33.2951" y2="29.3407" gradientUnits="userSpaceOnUse">
<stop stop-color="#41C9FE"/>
<stop offset="1" stop-color="#2B87AA"/>
</linearGradient>
<linearGradient id="paint6_linear_1324_71284" x1="29.0222" y1="33.5125" x2="31.6773" y2="31.7992" gradientUnits="userSpaceOnUse">
<stop stop-color="#41C9FE"/>
<stop offset="1" stop-color="#2B87AA"/>
</linearGradient>
<clipPath id="clip0_1324_71284">
<rect width="55.7812" height="55.7812" fill="white" transform="translate(0 7.10938)"/>
</clipPath>
</defs>
</svg>
