<svg width="75" height="68" viewBox="0 0 75 68" fill="none" xmlns="http://www.w3.org/2000/svg">
<g opacity="0.6">
<g clip-path="url(#clip0_1324_71283)">
<path fill-rule="evenodd" clip-rule="evenodd" d="M29.0667 6.02319V8.59895H31.6022V9.88683H32.87V22.7656H31.6022V24.0535H21.4602V22.7656H20.1924L20.1934 16.7409C12.2183 18.5093 6.24711 25.7245 6.24711 34.3565C6.24711 43.4855 12.9256 51.0299 21.59 52.2226C22.3705 51.2304 23.4342 50.4814 24.6559 50.0975L20.1924 44.6596H32.87L28.4091 50.0983C30.993 50.9114 32.87 53.3583 32.87 56.2505C32.87 59.8069 30.032 62.6899 26.5312 62.6899C23.0304 62.6899 20.1924 59.8069 20.1924 56.2505C20.1924 56.1367 20.1953 56.0235 20.2011 55.9112C10.1089 54.0921 2.44385 45.1336 2.44385 34.3565C2.44385 23.583 10.1038 14.627 20.1928 12.8023L20.1924 9.88683H21.4602V8.59895H23.9957V6.02319H29.0667ZM58.2251 24.0535V36.9323H17.6569V31.7808H53.1541V24.0535H58.2251Z" fill="white"/>
</g>
</g>
<defs>
<clipPath id="clip0_1324_71283">
<rect width="58.6494" height="59.5803" fill="white" transform="translate(0 3.54077)"/>
</clipPath>
</defs>
</svg>
