<svg width="105" height="64" viewBox="0 0 105 64" fill="none" xmlns="http://www.w3.org/2000/svg">
<mask id="path-1-outside-1_1369_114379" maskUnits="userSpaceOnUse" x="47.8931" y="39.4923" width="35.2123" height="7.05106" fill="black">
<rect fill="white" x="47.8931" y="39.4923" width="35.2123" height="7.05106"/>
<path fill-rule="evenodd" clip-rule="evenodd" d="M49.2588 42.2272L81.1669 45.0333C81.3056 45.0455 81.4283 44.942 81.4404 44.8029L81.5382 43.6789C81.5503 43.5398 81.4474 43.4165 80.9846 43.3758L49.4126 40.5993C49.2201 40.5824 49.1395 40.6895 49.1274 40.8287L49.0296 41.9526C49.0175 42.0917 49.1201 42.215 49.2588 42.2272Z"/>
</mask>
<path fill-rule="evenodd" clip-rule="evenodd" d="M49.2588 42.2272L81.1669 45.0333C81.3056 45.0455 81.4283 44.942 81.4404 44.8029L81.5382 43.6789C81.5503 43.5398 81.4474 43.4165 80.9846 43.3758L49.4126 40.5993C49.2201 40.5824 49.1395 40.6895 49.1274 40.8287L49.0296 41.9526C49.0175 42.0917 49.1201 42.215 49.2588 42.2272Z" fill="#23B6F5"/>
<path d="M49.2588 42.2272L49.2155 42.7253L81.1236 45.5314L81.1669 45.0333L81.2103 44.5351L49.3022 41.7291L49.2588 42.2272ZM81.1669 45.0333L81.1236 45.5314C81.5393 45.5679 81.9026 45.2589 81.9385 44.8467L81.4404 44.8029L80.9423 44.7591C80.954 44.6251 81.0719 44.523 81.2103 44.5351L81.1669 45.0333ZM81.4404 44.8029L81.9385 44.8467L82.0363 43.7227L81.5382 43.6789L81.0402 43.6351L80.9423 44.7591L81.4404 44.8029ZM81.5382 43.6789L82.0363 43.7227C82.0453 43.6193 82.0346 43.4923 81.973 43.3633C81.9111 43.2338 81.8152 43.1385 81.7115 43.0712C81.5235 42.949 81.2804 42.8999 81.0279 42.8777L80.9846 43.3758L80.9412 43.8739C81.0383 43.8825 81.1024 43.8942 81.1422 43.9046C81.1836 43.9154 81.1852 43.9212 81.1675 43.9098C81.1459 43.8958 81.1024 43.8598 81.0709 43.7939C81.0396 43.7284 81.0372 43.669 81.0402 43.6351L81.5382 43.6789ZM80.9846 43.3758L81.0279 42.8777L49.4559 40.1012L49.4126 40.5993L49.3692 41.0974L80.9412 43.8739L80.9846 43.3758ZM49.4126 40.5993L49.4559 40.1012C49.26 40.084 49.0392 40.1258 48.8637 40.2874C48.6967 40.441 48.6422 40.6379 48.6294 40.7849L49.1274 40.8287L49.6255 40.8725C49.6248 40.8803 49.6166 40.9541 49.5411 41.0236C49.4569 41.101 49.3726 41.0977 49.3692 41.0974L49.4126 40.5993ZM49.1274 40.8287L48.6294 40.7849L48.5315 41.9088L49.0296 41.9526L49.5277 41.9964L49.6255 40.8725L49.1274 40.8287ZM49.0296 41.9526L48.5315 41.9088C48.4957 42.3202 48.7989 42.6887 49.2155 42.7253L49.2588 42.2272L49.3022 41.7291C49.4413 41.7413 49.5393 41.8632 49.5277 41.9964L49.0296 41.9526Z" fill="black" mask="url(#path-1-outside-1_1369_114379)"/>
<mask id="mask0_1369_114379" style="mask-type:luminance" maskUnits="userSpaceOnUse" x="0" y="11" width="74" height="42">
<path fill-rule="evenodd" clip-rule="evenodd" d="M0 20.6074L69.6735 11.9766L73.5184 43.5691L3.84492 52.1999L0 20.6074Z" fill="white"/>
</mask>
<g mask="url(#mask0_1369_114379)">
<path fill-rule="evenodd" clip-rule="evenodd" d="M3.76027 48.5057L4.01038 49.7014C4.31439 51.154 5.73404 52.0831 7.18166 51.7764L24.1829 48.1711C24.507 48.1024 24.7144 47.7831 24.6463 47.4581L24.3083 45.8418C24.2565 45.5945 24.4372 45.3598 24.6884 45.3471L38.0935 44.6835C40.298 44.5743 42.4908 44.2892 44.6512 43.831L52.9765 42.0657C55.0007 41.6366 56.9968 41.0813 58.9527 40.4035L71.7672 35.9619C72.2608 35.7908 72.5505 35.278 72.4432 34.7653L72.2724 33.9495C72.223 33.7131 71.9922 33.5623 71.7573 33.6121C71.4699 33.673 71.192 33.4744 71.1557 33.1821L71.0611 32.418C69.9627 30.0741 67.5774 28.6139 64.9975 28.7064L52.7202 29.0059C52.0654 29.0215 51.4122 28.9372 50.7825 28.7555L47.7115 27.8684C47.7115 27.8684 47.7078 27.8675 47.7058 27.8671L34.0898 24.6938C31.6367 24.1226 29.3711 22.9297 27.5093 21.2286L23.8412 17.8785C23.724 17.74 23.5403 17.6772 23.3632 17.7146L2.29563 22.182C1.99964 22.2447 1.79108 22.5111 1.80049 22.8147L2.18707 35.396L2.71518 42.7338C2.83583 44.4149 3.19106 46.0702 3.76942 47.6514C3.77498 47.6675 3.77712 47.6824 3.77522 47.6991C3.76164 47.8058 3.70848 48.258 3.76027 48.5057Z" fill="url(#paint0_linear_1369_114379)"/>
<path d="M3.76027 48.5057L4.01038 49.7014C4.31439 51.154 5.73404 52.0831 7.18166 51.7764L24.1829 48.1711C24.507 48.1024 24.7144 47.7831 24.6463 47.4581L24.3083 45.8418C24.2565 45.5945 24.4372 45.3598 24.6884 45.3471L38.0935 44.6835C40.298 44.5743 42.4908 44.2892 44.6512 43.831L52.9765 42.0657C55.0007 41.6366 56.9968 41.0813 58.9527 40.4035L71.7672 35.9619C72.2608 35.7908 72.5505 35.278 72.4432 34.7653L72.2724 33.9495C72.223 33.7131 71.9922 33.5623 71.7573 33.6121C71.4699 33.673 71.192 33.4744 71.1557 33.1821L71.0611 32.418C69.9627 30.0741 67.5774 28.6139 64.9975 28.7064L52.7202 29.0059C52.0654 29.0215 51.4122 28.9372 50.7825 28.7555L47.7115 27.8684C47.7115 27.8684 47.7078 27.8675 47.7058 27.8671L34.0898 24.6938C31.6367 24.1226 29.3711 22.9297 27.5093 21.2286L23.8412 17.8785C23.724 17.74 23.5403 17.6772 23.3632 17.7146L2.29563 22.182C1.99964 22.2447 1.79108 22.5111 1.80049 22.8147L2.18707 35.396L2.71518 42.7338C2.83583 44.4149 3.19106 46.0702 3.76942 47.6514C3.77498 47.6675 3.77712 47.6824 3.77522 47.6991C3.76164 47.8058 3.70848 48.258 3.76027 48.5057" stroke="black"/>
</g>
<mask id="mask1_1369_114379" style="mask-type:luminance" maskUnits="userSpaceOnUse" x="49" y="35" width="56" height="17">
<path fill-rule="evenodd" clip-rule="evenodd" d="M49.0156 35.7573H104.975V51.3186H49.0156V35.7573Z" fill="white"/>
</mask>
<g mask="url(#mask1_1369_114379)">
<path fill-rule="evenodd" clip-rule="evenodd" d="M104.071 37.819L103.417 37.1614C102.351 36.0897 100.842 35.5877 99.3499 35.8084L92.6647 36.7964C91.3539 36.9903 90.1215 37.544 89.1031 38.3969L88.1326 39.2099C85.8972 41.0825 83.1857 42.2663 80.3113 42.7229C78.1774 43.0617 77.294 43.668 76.9284 44.2589C76.4459 45.0396 75.6426 45.2446 74.7411 45.3944L49.4887 49.2818C49.2164 49.3237 49.0156 49.5585 49.0156 49.8355V49.8397C49.0156 50.6566 49.6745 51.3186 50.4872 51.3186H63.0803H76.5887H102.507C102.582 51.3186 102.656 51.3156 102.73 51.3094C104.017 51.2034 104.975 50.0565 104.975 48.7576V40.0134C104.975 39.1903 104.65 38.4008 104.071 37.819Z" fill="#E4E4E4"/>
<path d="M104.071 37.819L103.417 37.1614C102.351 36.0897 100.842 35.5877 99.3499 35.8084L92.6647 36.7964C91.3539 36.9903 90.1215 37.544 89.1031 38.3969L88.1326 39.2099C85.8972 41.0825 83.1857 42.2663 80.3113 42.7229C78.1774 43.0617 77.294 43.668 76.9284 44.2589C76.4459 45.0396 75.6426 45.2446 74.7411 45.3944L49.4887 49.2818C49.2164 49.3237 49.0156 49.5585 49.0156 49.8355V49.8397C49.0156 50.6566 49.6745 51.3186 50.4872 51.3186H63.0803H76.5887H102.507C102.582 51.3186 102.656 51.3156 102.73 51.3094C104.017 51.2034 104.975 50.0565 104.975 48.7576V40.0134C104.975 39.1903 104.65 38.4008 104.071 37.819" stroke="black"/>
</g>
<path d="M92.7129 11.3431C92.7129 11.3431 95.5091 11.708 96.0035 11.8614C96.3276 11.9577 96.6517 12.2066 96.8046 12.7632C96.9409 13.3199 97.2649 16.4678 97.2649 16.4678L97.4694 16.4678C97.4694 16.4678 97.7934 13.3199 97.9297 12.7632C98.0264 12.3181 98.3354 11.9702 98.7308 11.8614C99.2252 11.708 102.021 11.3431 102.021 11.3431L102.021 11.113C102.021 11.113 99.2252 10.7481 98.7308 10.5947C98.3386 10.4787 98.0327 10.1335 97.9297 9.69287C97.7934 9.13624 97.4694 5.98828 97.4694 5.98828L97.2649 5.98828C97.2649 5.98828 96.9409 9.13624 96.8046 9.69287C96.7079 10.138 96.3989 10.4859 96.0035 10.5947C95.5091 10.7481 92.7129 11.113 92.7129 11.113L92.7129 11.3431Z" fill="white"/>
<path d="M80.0527 18.9191C80.0527 18.9191 85.6451 19.5706 86.634 19.8446C87.2821 20.0167 87.9303 20.4611 88.2361 21.4551C88.5087 22.449 89.1568 28.0704 89.1568 28.0704L89.5657 28.0704C89.5657 28.0704 90.2138 22.449 90.4864 21.4551C90.6797 20.6602 91.2977 20.039 92.0885 19.8446C93.0774 19.5706 98.6698 18.9191 98.6698 18.9191L98.6698 18.5082C98.6698 18.5082 93.0774 17.8567 92.0885 17.5827C91.3041 17.3756 90.6924 16.7592 90.4864 15.9723C90.2138 14.9783 89.5657 9.35693 89.5657 9.35693L89.1568 9.35693C89.1568 9.35693 88.5087 14.9783 88.2361 15.9723C88.0428 16.7671 87.4247 17.3884 86.634 17.5827C85.6451 17.8567 80.0527 18.5082 80.0527 18.5082L80.0527 18.9191Z" fill="white"/>
<defs>
<linearGradient id="paint0_linear_1369_114379" x1="18.1295" y1="26.3142" x2="12.3746" y2="52.5487" gradientUnits="userSpaceOnUse">
<stop stop-color="#DADADA"/>
<stop offset="1" stop-color="#858181"/>
</linearGradient>
</defs>
</svg>
