<svg width="48" height="44" viewBox="0 0 48 44" fill="none" xmlns="http://www.w3.org/2000/svg">
<rect opacity="0.01" width="47.25" height="43.2" fill="black"/>
<rect opacity="0.5" x="24.6094" y="6.30005" width="15.75" height="14.4" rx="3" fill="#346AB1"/>
<rect opacity="0.7" x="6.89062" y="6.30005" width="15.75" height="5.4" rx="2.7" fill="#2B86B2"/>
<rect opacity="0.6" x="35.4375" y="22.5" width="4.92188" height="14.4" rx="2.46094" fill="#33BA9B"/>
<rect opacity="0.4" x="6.89062" y="13.5" width="26.5781" height="23.4" rx="3" fill="#20B1CF"/>
<path d="M27.5625 13.6187C27.5625 13.6187 30.7166 13.9947 31.2743 14.1528C31.6399 14.2521 32.0054 14.5086 32.1779 15.0822C32.3317 15.6559 32.6972 18.9001 32.6972 18.9001L32.9278 18.9001C32.9278 18.9001 33.2933 15.6559 33.4471 15.0822C33.5561 14.6235 33.9047 14.265 34.3507 14.1528C34.9084 13.9947 38.0625 13.6187 38.0625 13.6187L38.0625 13.3815C38.0625 13.3815 34.9084 13.0055 34.3507 12.8474C33.9083 12.7279 33.5633 12.3721 33.4471 11.918C33.2933 11.3443 32.9278 8.1001 32.9278 8.1001L32.6972 8.1001C32.6972 8.1001 32.3317 11.3443 32.1779 11.918C32.0689 12.3767 31.7203 12.7352 31.2743 12.8474C30.7166 13.0055 27.5625 13.3815 27.5625 13.3815L27.5625 13.6187Z" fill="white"/>
<path d="M9.84375 25.1109C9.84375 25.1109 16.152 25.7793 17.2674 26.0604C17.9985 26.2369 18.7296 26.6929 19.0746 27.7127C19.3821 28.7325 20.1132 34.5001 20.1132 34.5001L20.5743 34.5001C20.5743 34.5001 21.3054 28.7325 21.6129 27.7127C21.831 26.8972 22.5281 26.2598 23.4201 26.0604C24.5355 25.7793 30.8437 25.1109 30.8437 25.1109L30.8437 24.6892C30.8437 24.6892 24.5355 24.0208 23.4201 23.7397C22.5353 23.5272 21.8453 22.8947 21.6129 22.0874C21.3054 21.0676 20.5743 15.3 20.5743 15.3L20.1132 15.3C20.1132 15.3 19.3821 21.0676 19.0746 22.0874C18.8565 22.9029 18.1594 23.5403 17.2674 23.7397C16.152 24.0208 9.84375 24.6892 9.84375 24.6892L9.84375 25.1109Z" fill="white"/>
</svg>
