<svg width="54" height="122" viewBox="0 0 54 122" fill="none" xmlns="http://www.w3.org/2000/svg">
<g clip-path="url(#clip0_1591_13933)">
<path d="M6.65809 49.324C7.06046 49.324 7.4649 49.187 7.79633 48.9069C8.54161 48.2767 8.6361 47.1608 8.00679 46.4147C6.1736 44.2402 5.16429 41.473 5.16429 38.6226C5.16429 31.9585 10.5782 26.5372 17.2325 26.5372C23.8868 26.5372 29.3007 31.9585 29.3007 38.6226C29.3007 40.482 28.8909 42.2641 28.083 43.9207C27.6547 44.7985 28.0179 45.8573 28.8945 46.2859C29.7707 46.716 30.8283 46.3507 31.2563 45.4732C32.3024 43.3291 32.8325 41.0243 32.8325 38.6226C32.8325 30.0081 25.8345 23 17.2322 23C8.62992 23 1.63184 30.0081 1.63184 38.6226C1.63184 42.3071 2.93726 45.8847 5.30734 48.6962C5.65702 49.1106 6.15594 49.324 6.65809 49.324Z" fill="#23C1FF"/>
<path d="M50.47 64.7874C49.3321 58.049 44.4871 57.1332 42.4002 57.0577C41.8095 57.0362 41.2711 56.7249 40.9544 56.2253C39.3746 53.7328 37.2324 53.0769 35.4169 53.0769C34.5856 53.0766 33.8233 53.214 33.2137 53.3755C33.0347 53.4227 32.8525 53.446 32.6724 53.446C32.0313 53.446 31.4134 53.153 31.0276 52.6174C29.4734 50.4612 27.4451 49.8781 25.7064 49.8781C25.2413 49.8781 24.7968 49.92 24.388 49.9842C24.2788 50.0016 24.1705 50.0099 24.0642 50.0099C22.9516 50.0099 22.0129 49.1049 22.0114 47.9503L21.9967 35.4856C21.9926 32.2647 19.5804 30.6553 17.1683 30.6553C14.7514 30.6553 12.3345 32.2703 12.3386 35.4974C12.3451 40.9084 12.3648 57.1606 12.3704 62.0575C12.3716 62.8852 11.8774 63.6331 11.115 63.9523C1.53671 67.9617 13.3647 85.9474 15.4831 89.0298C15.6898 89.3304 15.8122 89.6791 15.8396 90.0432L16.3573 97.0176C16.438 98.0935 17.3334 98.9996 18.411 98.9996C18.4119 98.9996 18.4128 98.9996 18.4136 98.9996L41.556 98.8967C42.5889 98.8953 43.4608 98.0914 43.5953 97.0659L44.5378 89.858C44.5778 89.5541 44.6879 89.2529 44.8539 88.9953C51.0387 79.4219 51.5247 71.0331 50.47 64.7874Z" fill="white"/>
</g>
<defs>
<clipPath id="clip0_1591_13933">
<rect width="54" height="76" fill="white" transform="translate(0 23)"/>
</clipPath>
</defs>
</svg>
